<svg width="1024" height="1024" viewBox="0 0 1024 1024" fill="none" xmlns="http://www.w3.org/2000/svg">
<rect width="1024" height="1024" fill="#E17100"/>
<path d="M512 725.333V512M512 512L326.187 405.333M512 512L697.813 405.333M416 347.093L608 456.96M490.667 719.573C497.153 723.318 504.51 725.29 512 725.29C519.49 725.29 526.847 723.318 533.333 719.573L682.667 634.24C689.146 630.499 694.528 625.12 698.273 618.642C702.017 612.164 703.992 604.816 704 597.333V426.667C703.992 419.185 702.017 411.836 698.273 405.358C694.528 398.88 689.146 393.501 682.667 389.76L533.333 304.427C526.847 300.682 519.49 298.71 512 298.71C504.51 298.71 497.153 300.682 490.667 304.427L341.333 389.76C334.854 393.501 329.472 398.88 325.727 405.358C321.983 411.836 320.008 419.185 320 426.667V597.333C320.008 604.816 321.983 612.164 325.727 618.642C329.472 625.12 334.854 630.499 341.333 634.24L490.667 719.573Z" stroke="#FEF4E7" stroke-width="42.6667" stroke-linecap="round" stroke-linejoin="round"/>
</svg>
