<svg width="144" height="24" viewBox="0 0 144 24" fill="none" xmlns="http://www.w3.org/2000/svg">
<path d="M14.1887 16.2005L22.4603 8.50608L46.3117 23.7134L22.4482 1.64843L7.0256 15.9251C9.42843 15.9251 11.804 15.9856 14.1887 16.2005Z" fill="white"/>
<path d="M14.1827 16.2492C11.7954 16.0363 9.41727 15.9764 7.01186 15.9764L0 22.4007C0 22.4007 3.56497 20.9333 9.717 20.3607C16.0431 19.7716 25.1031 20.1283 35.845 24C27.9566 18.7209 21.0295 16.8592 14.1827 16.2492Z" fill="white"/>
<path d="M53.8327 7.58557C53.4077 7.58557 53.0946 7.48219 52.8932 7.27544C52.6975 7.06869 52.5997 6.76973 52.5997 6.37858V2.0787C52.5997 1.7546 52.6808 1.50873 52.8429 1.34109C53.0051 1.17346 53.1952 1.0617 53.4133 1.00582V0.963912H51.6099V0H54.6631V0.963912H54.5456C54.3275 0.963912 54.1542 1.03097 54.0256 1.16508C53.9026 1.29919 53.8411 1.48917 53.8411 1.73504V6.62165H54.4198V7.58557H53.8327Z" fill="white"/>
<path d="M57.0802 7.68615C56.7838 7.68615 56.5098 7.64703 56.2582 7.5688C56.0065 7.48498 55.7884 7.37322 55.6039 7.23353C55.425 7.08824 55.2824 6.91781 55.1761 6.72224C55.0755 6.52666 55.0252 6.31153 55.0252 6.07683V5.66612C55.0252 5.43702 55.0867 5.25541 55.2097 5.1213C55.3383 4.98719 55.5284 4.92014 55.7801 4.92014H56.7866V5.83376H56.1407V5.96787C56.1407 6.21933 56.2246 6.41211 56.3924 6.54622C56.5601 6.67474 56.8034 6.739 57.1221 6.739C57.4073 6.739 57.6254 6.64401 57.7763 6.45402C57.9329 6.25844 58.0112 5.99302 58.0112 5.65774V4.88661C58.0112 4.55134 57.9217 4.2915 57.7428 4.1071C57.5639 3.91711 57.3122 3.82212 56.9879 3.82212C56.8313 3.82212 56.6831 3.84168 56.5433 3.88079C56.4091 3.91991 56.2861 3.9702 56.1743 4.03166C56.068 4.09313 55.973 4.16298 55.8891 4.24121C55.8108 4.31385 55.7493 4.3837 55.7046 4.45076L54.9497 3.78021C55.123 3.51758 55.383 3.29686 55.7297 3.11804C56.082 2.93364 56.5182 2.84144 57.0382 2.84144C57.3905 2.84144 57.7064 2.89732 57.986 3.00908C58.2712 3.11525 58.5117 3.27451 58.7074 3.48685C58.9031 3.6936 59.0513 3.94785 59.1519 4.24959C59.2582 4.54575 59.3113 4.88382 59.3113 5.2638C59.3113 5.64377 59.261 5.98463 59.1603 6.28638C59.0597 6.58254 58.9115 6.83679 58.7158 7.04913C58.5256 7.25588 58.2908 7.41513 58.0112 7.52689C57.7372 7.63306 57.4268 7.68615 57.0802 7.68615Z" fill="white"/>
<path d="M60.1725 4.81118C60.1725 4.50943 60.2257 4.23842 60.3319 3.99814C60.4382 3.75786 60.5891 3.55111 60.7848 3.37788C60.9806 3.20466 61.2182 3.07334 61.4978 2.98394C61.783 2.88894 62.1017 2.84144 62.454 2.84144C62.8063 2.84144 63.1222 2.88894 63.4018 2.98394C63.687 3.07334 63.9274 3.20466 64.1232 3.37788C64.3189 3.55111 64.4698 3.75786 64.5761 3.99814C64.6823 4.23842 64.7355 4.50943 64.7355 4.81118V7.58557H63.4941V4.86985C63.4941 4.53458 63.4018 4.27753 63.2173 4.09872C63.0328 3.91432 62.7783 3.82212 62.454 3.82212C62.1297 3.82212 61.8752 3.91432 61.6907 4.09872C61.5062 4.27753 61.4139 4.53458 61.4139 4.86985V5.86729H61.4559C61.4782 5.74435 61.5174 5.62701 61.5733 5.51525C61.6292 5.3979 61.7019 5.29453 61.7914 5.20512C61.8864 5.11572 61.9983 5.04587 62.1269 4.99558C62.2555 4.9397 62.4065 4.91176 62.5798 4.91176H62.7979V6.06845H62.4876C62.1241 6.06845 61.8529 6.11595 61.6739 6.21094C61.5006 6.30594 61.4139 6.48196 61.4139 6.739V7.58557H60.1725V4.81118Z" fill="white"/>
<path d="M67.7041 7.68615C67.4077 7.68615 67.1337 7.64703 66.8821 7.5688C66.6304 7.48498 66.4123 7.37322 66.2278 7.23353C66.0489 7.08824 65.9063 6.91781 65.8 6.72224C65.6994 6.52666 65.6491 6.31153 65.6491 6.07683V5.66612C65.6491 5.43702 65.7106 5.25541 65.8336 5.1213C65.9622 4.98719 66.1523 4.92014 66.404 4.92014H67.4105V5.83376H66.7646V5.96787C66.7646 6.21933 66.8485 6.41211 67.0163 6.54622C67.184 6.67474 67.4273 6.739 67.746 6.739C68.0312 6.739 68.2493 6.64401 68.4002 6.45402C68.5568 6.25844 68.6351 5.99302 68.6351 5.65774V4.88661C68.6351 4.55134 68.5456 4.2915 68.3667 4.1071C68.1878 3.91711 67.9361 3.82212 67.6118 3.82212C67.4552 3.82212 67.307 3.84168 67.1672 3.88079C67.033 3.91991 66.91 3.9702 66.7982 4.03166C66.6919 4.09313 66.5969 4.16298 66.513 4.24121C66.4347 4.31385 66.3732 4.3837 66.3285 4.45076L65.5736 3.78021C65.7469 3.51758 66.0069 3.29686 66.3536 3.11804C66.7059 2.93364 67.1421 2.84144 67.6621 2.84144C68.0144 2.84144 68.3303 2.89732 68.6099 3.00908C68.8951 3.11525 69.1356 3.27451 69.3313 3.48685C69.527 3.6936 69.6752 3.94785 69.7758 4.24959C69.8821 4.54575 69.9352 4.88382 69.9352 5.2638C69.9352 5.64377 69.8849 5.98463 69.7842 6.28638C69.6836 6.58254 69.5354 6.83679 69.3397 7.04913C69.1495 7.25588 68.9147 7.41513 68.6351 7.52689C68.3611 7.63306 68.0508 7.68615 67.7041 7.68615Z" fill="white"/>
<path d="M72.2643 7.68615C71.7834 7.68615 71.4171 7.52969 71.1655 7.21676C70.9195 6.89825 70.7964 6.44563 70.7964 5.85891V2.94203H72.0378V5.74994C72.0378 5.88405 72.049 6.00978 72.0714 6.12712C72.0937 6.23888 72.1329 6.33667 72.1888 6.42049C72.2447 6.49872 72.3202 6.56298 72.4153 6.61327C72.5159 6.65797 72.6389 6.68033 72.7843 6.68033C72.885 6.68033 72.9856 6.66636 73.0863 6.63842C73.1925 6.60489 73.2848 6.55739 73.3631 6.49593C73.4414 6.43446 73.5057 6.35902 73.556 6.26962C73.6063 6.18021 73.6315 6.07683 73.6315 5.95949V2.94203H74.8729V6.62165H75.2839V7.58557H74.5374C74.0341 7.58557 73.7741 7.29779 73.7573 6.72224H73.6986C73.6539 6.85076 73.5923 6.97369 73.5141 7.09104C73.4414 7.20279 73.3463 7.30338 73.2289 7.39278C73.117 7.48219 72.98 7.55204 72.8179 7.60233C72.6613 7.65821 72.4768 7.68615 72.2643 7.68615Z" fill="white"/>
<path d="M77.8577 7.68615C77.4104 7.68615 77.0301 7.6135 76.717 7.46822C76.4094 7.32293 76.1382 7.11898 75.9034 6.85634L76.6499 6.13551C76.812 6.31432 76.9966 6.4596 77.2035 6.57136C77.416 6.67753 77.6536 6.73062 77.9164 6.73062C78.1737 6.73062 78.361 6.68871 78.4784 6.60489C78.5958 6.52107 78.6546 6.41211 78.6546 6.278C78.6546 6.13271 78.607 6.02934 78.512 5.96787C78.4169 5.90082 78.2883 5.85611 78.1261 5.83376L77.648 5.77509C77.1392 5.71362 76.7477 5.56554 76.4737 5.33085C76.2053 5.09616 76.0711 4.76927 76.0711 4.35017C76.0711 4.11548 76.1131 3.90594 76.197 3.72154C76.2864 3.53714 76.4094 3.38068 76.566 3.25215C76.7282 3.11804 76.9183 3.01746 77.1364 2.95041C77.36 2.87776 77.6061 2.84144 77.8745 2.84144C78.0982 2.84144 78.2995 2.85821 78.4784 2.89173C78.6573 2.91967 78.8195 2.96438 78.9649 3.02584C79.1159 3.08731 79.2529 3.16275 79.3759 3.25215C79.4989 3.34156 79.6191 3.44494 79.7366 3.56228L79.0068 4.28312C78.8726 4.13784 78.7077 4.02049 78.512 3.93108C78.3162 3.84168 78.1121 3.79697 77.8997 3.79697C77.6704 3.79697 77.5026 3.83888 77.3964 3.9227C77.2902 4.00652 77.237 4.11548 77.237 4.24959C77.237 4.3837 77.279 4.49267 77.3628 4.57648C77.4523 4.65472 77.6033 4.7078 77.8158 4.73574L78.2939 4.80279C78.5343 4.83632 78.7468 4.88661 78.9313 4.95367C79.1215 5.02072 79.2808 5.11013 79.4095 5.22189C79.5437 5.32806 79.6443 5.45937 79.7114 5.61583C79.7841 5.77229 79.8204 5.95949 79.8204 6.17742C79.8204 6.39534 79.7729 6.59651 79.6779 6.78091C79.5828 6.96531 79.4486 7.12456 79.2752 7.25867C79.1075 7.39278 78.9006 7.49895 78.6546 7.57718C78.4141 7.64983 78.1485 7.68615 77.8577 7.68615Z" fill="white"/>
<path d="M78.2455 10.5863C78.0051 10.5863 77.8038 10.5583 77.6416 10.5024C77.4739 10.4522 77.3396 10.3767 77.239 10.2761C77.1383 10.1811 77.0657 10.0666 77.0209 9.93248C76.9762 9.80396 76.9538 9.65867 76.9538 9.49662V9.25355H76.417V8.45728H77.0796C77.3592 8.45728 77.5605 8.51036 77.6835 8.61653C77.801 8.7227 77.8597 8.86519 77.8597 9.04401V9.32061C77.8597 9.63353 77.9911 9.78999 78.2539 9.78999C78.3993 9.78999 78.5027 9.75087 78.5643 9.67264C78.6258 9.6 78.6565 9.48265 78.6565 9.32061V8.45728H79.6714V9.22002C79.6714 9.62235 79.5568 9.94924 79.3275 10.2007C79.0927 10.4577 78.732 10.5863 78.2455 10.5863Z" fill="white"/>
<path d="M80.3865 2.94203H81.5188L81.7369 5.36438L81.7872 6.12712H81.8543L82.0221 5.36438L82.6512 2.94203H83.4732L84.1022 5.36438L84.27 6.12712H84.3287L84.3539 5.36438L84.7733 1.32433H85.9643L85.1088 7.58557H83.7919L83.188 4.86147L83.0706 4.20768H83.0454L82.9112 4.86147L82.2989 7.58557H81.0072L80.3865 2.94203Z" fill="white"/>
<path d="M54.3695 11.6815H57.02L54.4869 23.6508H51.8532L54.3695 11.6815Z" fill="white"/>
<path d="M66.1945 15.8389C66.1945 15.1013 65.9932 14.5481 65.5906 14.1793C65.1991 13.7993 64.6847 13.6093 64.0472 13.6093C63.3762 13.6093 62.7891 13.7658 62.2858 14.0787C61.7937 14.3804 61.3855 14.7772 61.0612 15.2689C60.748 15.7495 60.5132 16.2915 60.3566 16.895C60.2 17.4873 60.1218 18.0685 60.1218 18.6384C60.1218 19.0519 60.1721 19.4431 60.2727 19.8119C60.3846 20.1807 60.5467 20.5104 60.7592 20.8009C60.9829 21.0803 61.2625 21.3038 61.598 21.4715C61.9447 21.6391 62.3585 21.7229 62.8394 21.7229C63.1973 21.7229 63.5328 21.6615 63.8459 21.5385C64.1702 21.4044 64.4554 21.2312 64.7015 21.0189C64.9475 20.7953 65.1544 20.5383 65.3221 20.2477C65.4899 19.9572 65.6017 19.6554 65.6577 19.3425H68.2914C68.023 20.1807 67.7043 20.8903 67.3352 21.4715C66.9773 22.0526 66.5691 22.5276 66.1106 22.8964C65.6632 23.254 65.16 23.5111 64.6008 23.6675C64.0528 23.8352 63.4545 23.919 62.8058 23.919C61.1059 23.919 59.7918 23.4664 58.8636 22.5611C57.9465 21.6559 57.488 20.3483 57.488 18.6384C57.488 17.6661 57.639 16.7441 57.941 15.8724C58.2429 15.0007 58.6735 14.2352 59.2327 13.5758C59.803 12.9052 60.4908 12.3744 61.296 11.9832C62.1124 11.5921 63.0239 11.3965 64.0304 11.3965C64.7238 11.3965 65.3669 11.4915 65.9596 11.6815C66.5523 11.8715 67.0612 12.1565 67.4862 12.5364C67.9223 12.9052 68.2579 13.369 68.4927 13.9278C68.7276 14.4754 68.8394 15.1125 68.8282 15.8389H66.1945Z" fill="white"/>
<path d="M69.9221 18.6384C69.9221 17.6661 70.0731 16.7441 70.3751 15.8724C70.677 15.0007 71.1076 14.2352 71.6668 13.5758C72.2372 12.9052 72.925 12.3744 73.7302 11.9832C74.5466 11.5921 75.458 11.3965 76.4646 11.3965C77.2698 11.3965 78.0023 11.5083 78.6622 11.7318C79.322 11.9441 79.8812 12.2682 80.3397 12.7041C80.7982 13.1399 81.1505 13.6764 81.3966 14.3134C81.6538 14.9504 81.7824 15.688 81.7824 16.5262C81.7824 17.5097 81.637 18.4484 81.3462 19.3425C81.0555 20.2366 80.6305 21.0244 80.0713 21.7062C79.5233 22.3879 78.8411 22.9299 78.0247 23.3322C77.2195 23.7234 76.2912 23.919 75.24 23.919C73.5401 23.919 72.226 23.4664 71.2977 22.5611C70.3807 21.6559 69.9221 20.3483 69.9221 18.6384ZM72.5559 18.6384C72.5559 19.0519 72.6062 19.4431 72.7069 19.8119C72.8187 20.1807 72.9809 20.5104 73.1934 20.8009C73.417 21.0803 73.6966 21.3038 74.0321 21.4715C74.3788 21.6391 74.7926 21.7229 75.2735 21.7229C75.9222 21.7229 76.4869 21.5721 76.9678 21.2703C77.4487 20.9574 77.8513 20.5607 78.1757 20.0801C78.5 19.5884 78.7404 19.0463 78.897 18.454C79.0648 17.8617 79.1486 17.2806 79.1486 16.7106C79.1486 16.2859 79.0983 15.8892 78.9977 15.5204C78.9082 15.1404 78.7572 14.8107 78.5447 14.5313C78.3322 14.2519 78.0582 14.0284 77.7227 13.8608C77.3872 13.6931 76.9734 13.6093 76.4814 13.6093C75.8103 13.6093 75.2232 13.7658 74.7199 14.0787C74.2278 14.3804 73.8196 14.7772 73.4953 15.2689C73.1822 15.7495 72.9473 16.2915 72.7907 16.895C72.6342 17.4873 72.5559 18.0685 72.5559 18.6384Z" fill="white"/>
<path d="M84.8241 11.6815H87.5417L90.7962 20.1974H90.8297L92.5408 11.6815H94.9565L92.4234 23.6508H89.7896L86.5017 15.2522H86.4681L84.757 23.6508H82.3078L84.8241 11.6815Z" fill="white"/>
<path d="M98.7513 17.0962H101.184C101.542 17.0962 101.883 17.0626 102.207 16.9956C102.531 16.9173 102.817 16.8056 103.063 16.6603C103.32 16.5038 103.521 16.3083 103.666 16.0736C103.823 15.8277 103.901 15.5371 103.901 15.2019C103.901 14.8778 103.845 14.6207 103.734 14.4307C103.633 14.2296 103.493 14.0787 103.314 13.9781C103.135 13.8775 102.928 13.8105 102.693 13.7769C102.459 13.7434 102.213 13.7267 101.955 13.7267H99.4558L98.7513 17.0962ZM97.2415 11.6815H102.962C103.499 11.6703 103.985 11.7206 104.421 11.8324C104.869 11.9329 105.249 12.1118 105.562 12.3688C105.875 12.6147 106.116 12.9388 106.283 13.3411C106.451 13.7434 106.535 14.2352 106.535 14.8163C106.535 15.2186 106.468 15.6042 106.334 15.973C106.2 16.3418 106.009 16.6715 105.763 16.962C105.517 17.2414 105.227 17.4761 104.891 17.6661C104.556 17.8561 104.187 17.979 103.784 18.0349V18.0685C104.276 18.2249 104.606 18.4987 104.774 18.8899C104.941 19.2698 105.025 19.7001 105.025 20.1807C105.025 20.4489 105.009 20.773 104.975 21.153C104.953 21.5218 104.941 21.8906 104.941 22.2594C104.941 22.5276 104.953 22.7846 104.975 23.0305C104.997 23.2652 105.042 23.4719 105.109 23.6508H102.543C102.509 23.5055 102.481 23.3714 102.459 23.2484C102.436 23.1143 102.425 22.9802 102.425 22.8461C102.425 22.4438 102.447 22.0414 102.492 21.6391C102.537 21.2256 102.559 20.8177 102.559 20.4154C102.559 20.1248 102.515 19.8901 102.425 19.7113C102.347 19.5213 102.229 19.3704 102.073 19.2587C101.927 19.1469 101.748 19.0743 101.536 19.0407C101.324 18.996 101.089 18.9737 100.831 18.9737H98.3487L97.3589 23.6508H94.7419L97.2415 11.6815Z" fill="white"/>
<path d="M107.519 18.6384C107.519 17.6661 107.67 16.7441 107.972 15.8724C108.274 15.0007 108.705 14.2352 109.264 13.5758C109.834 12.9052 110.522 12.3744 111.327 11.9832C112.144 11.5921 113.055 11.3965 114.062 11.3965C114.867 11.3965 115.6 11.5083 116.259 11.7318C116.919 11.9441 117.478 12.2682 117.937 12.7041C118.396 13.1399 118.748 13.6764 118.994 14.3134C119.251 14.9504 119.38 15.688 119.38 16.5262C119.38 17.5097 119.234 18.4484 118.944 19.3425C118.653 20.2366 118.228 21.0244 117.669 21.7062C117.121 22.3879 116.438 22.9299 115.622 23.3322C114.817 23.7234 113.889 23.919 112.837 23.919C111.137 23.919 109.823 23.4664 108.895 22.5611C107.978 21.6559 107.519 20.3483 107.519 18.6384ZM110.153 18.6384C110.153 19.0519 110.204 19.4431 110.304 19.8119C110.416 20.1807 110.578 20.5104 110.791 20.8009C111.014 21.0803 111.294 21.3038 111.629 21.4715C111.976 21.6391 112.39 21.7229 112.871 21.7229C113.519 21.7229 114.084 21.5721 114.565 21.2703C115.046 20.9574 115.449 20.5607 115.773 20.0801C116.097 19.5884 116.338 19.0463 116.494 18.454C116.662 17.8617 116.746 17.2806 116.746 16.7106C116.746 16.2859 116.696 15.8892 116.595 15.5204C116.505 15.1404 116.355 14.8107 116.142 14.5313C115.93 14.2519 115.656 14.0284 115.32 13.8608C114.985 13.6931 114.571 13.6093 114.079 13.6093C113.408 13.6093 112.82 13.7658 112.317 14.0787C111.825 14.3804 111.417 14.7772 111.093 15.2689C110.779 15.7495 110.545 16.2915 110.388 16.895C110.231 17.4873 110.153 18.0685 110.153 18.6384Z" fill="white"/>
<path d="M120.576 18.6384C120.576 17.6661 120.727 16.7441 121.029 15.8724C121.331 15.0007 121.762 14.2352 122.321 13.5758C122.891 12.9052 123.579 12.3744 124.384 11.9832C125.201 11.5921 126.112 11.3965 127.119 11.3965C127.924 11.3965 128.656 11.5083 129.316 11.7318C129.976 11.9441 130.535 12.2682 130.994 12.7041C131.452 13.1399 131.804 13.6764 132.051 14.3134C132.308 14.9504 132.436 15.688 132.436 16.5262C132.436 17.5097 132.291 18.4484 132 19.3425C131.709 20.2366 131.284 21.0244 130.725 21.7062C130.177 22.3879 129.495 22.9299 128.679 23.3322C127.873 23.7234 126.945 23.919 125.894 23.919C124.194 23.919 122.88 23.4664 121.952 22.5611C121.035 21.6559 120.576 20.3483 120.576 18.6384ZM123.21 18.6384C123.21 19.0519 123.26 19.4431 123.361 19.8119C123.473 20.1807 123.635 20.5104 123.847 20.8009C124.071 21.0803 124.351 21.3038 124.686 21.4715C125.033 21.6391 125.447 21.7229 125.927 21.7229C126.576 21.7229 127.141 21.5721 127.622 21.2703C128.103 20.9574 128.505 20.5607 128.83 20.0801C129.154 19.5884 129.394 19.0463 129.551 18.454C129.719 17.8617 129.803 17.2806 129.803 16.7106C129.803 16.2859 129.752 15.8892 129.652 15.5204C129.562 15.1404 129.411 14.8107 129.199 14.5313C128.986 14.2519 128.712 14.0284 128.377 13.8608C128.041 13.6931 127.627 13.6093 127.135 13.6093C126.464 13.6093 125.877 13.7658 125.374 14.0787C124.882 14.3804 124.474 14.7772 124.149 15.2689C123.836 15.7495 123.601 16.2915 123.445 16.895C123.288 17.4873 123.21 18.0685 123.21 18.6384Z" fill="white"/>
<path d="M135.478 11.6815H144L143.514 13.8943H137.642L137.055 16.6603H142.188L141.752 18.7055H136.636L135.579 23.6508H132.962L135.478 11.6815Z" fill="white"/>
</svg>
