<svg width="575" height="116" viewBox="0 0 575 116" fill="none" xmlns="http://www.w3.org/2000/svg">
<path d="M66.3593 78.107L98.0489 48.6167L189.427 106.901L98.0025 22.3335L38.9162 77.0515C48.1218 77.0515 57.2232 77.2835 66.3593 78.107Z" fill="#E17100"/>
<path d="M66.336 78.2936C57.1901 77.4778 48.079 77.248 38.8635 77.248L12 101.87C12 101.87 25.658 96.2461 49.2274 94.0516C73.4637 91.7939 108.174 93.1612 149.328 108C119.106 87.7668 92.5674 80.6317 66.336 78.2936Z" fill="#E17100"/>
<path d="M219.611 59.4485H229.766L220.061 105.323H209.971L219.611 59.4485Z" fill="#E17100"/>
<path d="M264.915 75.3825C264.915 72.5555 264.144 70.4353 262.601 69.0218C261.101 67.5654 259.131 66.8373 256.688 66.8373C254.118 66.8373 251.868 67.4369 249.94 68.6363C248.055 69.7928 246.491 71.3133 245.248 73.198C244.049 75.0398 243.149 77.1172 242.549 79.4302C241.949 81.7004 241.649 83.9277 241.649 86.1122C241.649 87.697 241.842 89.1962 242.228 90.6097C242.656 92.0232 243.277 93.2868 244.092 94.4004C244.948 95.4713 246.02 96.3279 247.305 96.9704C248.633 97.6129 250.219 97.9342 252.061 97.9342C253.432 97.9342 254.717 97.6986 255.917 97.2274C257.16 96.7134 258.252 96.0495 259.195 95.2357C260.137 94.379 260.93 93.3939 261.573 92.2802C262.215 91.1665 262.644 90.01 262.858 88.8107H272.948C271.92 92.0232 270.699 94.7431 269.285 96.9704C267.914 99.1978 266.35 101.018 264.593 102.432C262.88 103.802 260.951 104.788 258.809 105.387C256.71 106.03 254.417 106.351 251.932 106.351C245.42 106.351 240.385 104.616 236.829 101.147C233.316 97.6772 231.559 92.6657 231.559 86.1122C231.559 82.3857 232.137 78.852 233.294 75.511C234.451 72.17 236.101 69.2359 238.243 66.7088C240.428 64.1388 243.063 62.1042 246.148 60.605C249.276 59.1059 252.768 58.3563 256.624 58.3563C259.28 58.3563 261.744 58.7204 264.015 59.4485C266.286 60.1767 268.235 61.2689 269.864 62.7253C271.535 64.1388 272.82 65.9163 273.72 68.058C274.619 70.1568 275.048 72.5983 275.005 75.3825H264.915Z" fill="#E17100"/>
<path d="M279.196 86.1122C279.196 82.3857 279.775 78.852 280.931 75.511C282.088 72.17 283.738 69.2359 285.88 66.7088C288.065 64.1388 290.7 62.1042 293.785 60.605C296.913 59.1059 300.405 58.3563 304.261 58.3563C307.346 58.3563 310.153 58.7846 312.68 59.6413C315.208 60.4551 317.351 61.6973 319.107 63.3678C320.864 65.0383 322.214 67.0943 323.156 69.5357C324.142 71.9772 324.635 74.8042 324.635 78.0167C324.635 81.7861 324.078 85.3841 322.964 88.8107C321.85 92.2374 320.221 95.2571 318.079 97.8699C315.98 100.483 313.366 102.56 310.238 104.102C307.153 105.601 303.597 106.351 299.57 106.351C293.057 106.351 288.022 104.616 284.466 101.147C280.953 97.6772 279.196 92.6657 279.196 86.1122ZM289.286 86.1122C289.286 87.697 289.479 89.1962 289.865 90.6097C290.293 92.0232 290.915 93.2868 291.729 94.4004C292.586 95.4713 293.657 96.3279 294.942 96.9704C296.27 97.6129 297.856 97.9342 299.698 97.9342C302.183 97.9342 304.347 97.3559 306.189 96.1994C308.032 95.0001 309.574 93.4795 310.817 91.6377C312.059 89.753 312.98 87.6756 313.58 85.4055C314.223 83.1353 314.544 80.908 314.544 78.7235C314.544 77.0958 314.351 75.5752 313.966 74.1617C313.623 72.7054 313.045 71.4418 312.231 70.371C311.416 69.3002 310.367 68.4435 309.081 67.801C307.796 67.1585 306.211 66.8373 304.325 66.8373C301.755 66.8373 299.505 67.4369 297.577 68.6363C295.692 69.7928 294.128 71.3133 292.885 73.198C291.686 75.0398 290.786 77.1172 290.186 79.4302C289.586 81.7004 289.286 83.9277 289.286 86.1122Z" fill="#E17100"/>
<path d="M336.288 59.4485H346.7L359.168 92.0875H359.296L365.852 59.4485H375.107L365.402 105.323H355.312L342.715 73.1337H342.586L336.031 105.323H326.647L336.288 59.4485Z" fill="#E17100"/>
<path d="M389.645 80.2012H398.964C400.335 80.2012 401.642 80.0727 402.884 79.8157C404.127 79.5159 405.22 79.0876 406.162 78.5307C407.148 77.9311 407.919 77.1815 408.476 76.282C409.076 75.3397 409.376 74.226 409.376 72.941C409.376 71.6988 409.161 70.7137 408.733 69.9855C408.347 69.2145 407.812 68.6363 407.126 68.2508C406.441 67.8653 405.648 67.6083 404.748 67.4798C403.849 67.3513 402.906 67.287 401.92 67.287H392.344L389.645 80.2012ZM383.861 59.4485H405.777C407.833 59.4057 409.697 59.5984 411.368 60.0268C413.082 60.4123 414.539 61.0976 415.738 62.0828C416.938 63.0251 417.859 64.2673 418.502 65.8093C419.145 67.3513 419.466 69.2359 419.466 71.4632C419.466 73.0052 419.209 74.483 418.695 75.8965C418.181 77.31 417.452 78.5736 416.51 79.6872C415.567 80.7581 414.453 81.6576 413.168 82.3857C411.882 83.1139 410.468 83.5851 408.926 83.7992V83.9277C410.811 84.5274 412.075 85.5768 412.718 87.076C413.36 88.5323 413.682 90.1814 413.682 92.0232C413.682 93.0512 413.617 94.2934 413.489 95.7497C413.403 97.1632 413.36 98.5767 413.36 99.9902C413.36 101.018 413.403 102.003 413.489 102.946C413.575 103.845 413.746 104.638 414.003 105.323H404.17C404.041 104.766 403.934 104.252 403.849 103.781C403.763 103.267 403.72 102.753 403.72 102.239C403.72 100.697 403.806 99.1549 403.977 97.6129C404.148 96.0281 404.234 94.4647 404.234 92.9227C404.234 91.809 404.063 90.9095 403.72 90.2242C403.42 89.496 402.97 88.9178 402.37 88.4895C401.813 88.0611 401.128 87.7827 400.314 87.6542C399.5 87.4829 398.6 87.3972 397.614 87.3972H388.103L384.311 105.323H374.285L383.861 59.4485Z" fill="#E17100"/>
<path d="M423.237 86.1122C423.237 82.3857 423.816 78.852 424.973 75.511C426.129 72.17 427.779 69.2359 429.921 66.7088C432.106 64.1388 434.741 62.1042 437.826 60.605C440.954 59.1059 444.446 58.3563 448.302 58.3563C451.387 58.3563 454.194 58.7846 456.722 59.6413C459.25 60.4551 461.392 61.6973 463.149 63.3678C464.905 65.0383 466.255 67.0943 467.198 69.5357C468.183 71.9772 468.676 74.8042 468.676 78.0167C468.676 81.7861 468.119 85.3841 467.005 88.8107C465.891 92.2374 464.263 95.2571 462.12 97.8699C460.021 100.483 457.407 102.56 454.279 104.102C451.194 105.601 447.638 106.351 443.611 106.351C437.098 106.351 432.064 104.616 428.507 101.147C424.994 97.6772 423.237 92.6657 423.237 86.1122ZM433.328 86.1122C433.328 87.697 433.52 89.1962 433.906 90.6097C434.334 92.0232 434.956 93.2868 435.77 94.4004C436.627 95.4713 437.698 96.3279 438.983 96.9704C440.312 97.6129 441.897 97.9342 443.739 97.9342C446.224 97.9342 448.388 97.3559 450.23 96.1994C452.073 95.0001 453.615 93.4795 454.858 91.6377C456.1 89.753 457.022 87.6756 457.621 85.4055C458.264 83.1353 458.585 80.908 458.585 78.7235C458.585 77.0958 458.393 75.5752 458.007 74.1617C457.664 72.7054 457.086 71.4418 456.272 70.371C455.458 69.3002 454.408 68.4435 453.123 67.801C451.837 67.1585 450.252 66.8373 448.367 66.8373C445.796 66.8373 443.546 67.4369 441.618 68.6363C439.733 69.7928 438.169 71.3133 436.927 73.198C435.727 75.0398 434.827 77.1172 434.227 79.4302C433.627 81.7004 433.328 83.9277 433.328 86.1122Z" fill="#E17100"/>
<path d="M473.259 86.1122C473.259 82.3857 473.838 78.852 474.995 75.511C476.152 72.17 477.801 69.2359 479.943 66.7088C482.129 64.1388 484.764 62.1042 487.849 60.605C490.976 59.1059 494.468 58.3563 498.324 58.3563C501.409 58.3563 504.216 58.7846 506.744 59.6413C509.272 60.4551 511.414 61.6973 513.171 63.3678C514.927 65.0383 516.277 67.0943 517.22 69.5357C518.205 71.9772 518.698 74.8042 518.698 78.0167C518.698 81.7861 518.141 85.3841 517.027 88.8107C515.913 92.2374 514.285 95.2571 512.142 97.8699C510.043 100.483 507.429 102.56 504.301 104.102C501.217 105.601 497.66 106.351 493.633 106.351C487.12 106.351 482.086 104.616 478.53 101.147C475.016 97.6772 473.259 92.6657 473.259 86.1122ZM483.35 86.1122C483.35 87.697 483.542 89.1962 483.928 90.6097C484.357 92.0232 484.978 93.2868 485.792 94.4004C486.649 95.4713 487.72 96.3279 489.005 96.9704C490.334 97.6129 491.919 97.9342 493.761 97.9342C496.246 97.9342 498.41 97.3559 500.253 96.1994C502.095 95.0001 503.637 93.4795 504.88 91.6377C506.122 89.753 507.044 87.6756 507.644 85.4055C508.286 83.1353 508.608 80.908 508.608 78.7235C508.608 77.0958 508.415 75.5752 508.029 74.1617C507.686 72.7054 507.108 71.4418 506.294 70.371C505.48 69.3002 504.43 68.4435 503.145 67.801C501.859 67.1585 500.274 66.8373 498.389 66.8373C495.818 66.8373 493.569 67.4369 491.64 68.6363C489.755 69.7928 488.191 71.3133 486.949 73.198C485.749 75.0398 484.849 77.1172 484.249 79.4302C483.65 81.7004 483.35 83.9277 483.35 86.1122Z" fill="#E17100"/>
<path d="M530.351 59.4485H563L561.136 67.9295H538.642L536.392 78.5307H556.059L554.388 86.3692H534.786L530.737 105.323H520.711L530.351 59.4485Z" fill="#E17100"/>
<path d="M217.555 41.0731C215.927 41.0731 214.727 40.6769 213.956 39.8844C213.206 39.092 212.831 37.9462 212.831 36.4471V19.967C212.831 18.7248 213.142 17.7825 213.763 17.14C214.384 16.4975 215.113 16.0692 215.948 15.855V15.6944H209.039V12H220.736V15.6944H220.286C219.451 15.6944 218.787 15.9514 218.294 16.4654C217.823 16.9794 217.587 17.7075 217.587 18.6499V37.3787H219.804V41.0731H217.555Z" fill="#E17100"/>
<path d="M229.996 41.4586C228.861 41.4586 227.811 41.3086 226.847 41.0088C225.883 40.6876 225.048 40.2592 224.341 39.7238C223.655 39.167 223.109 38.5138 222.702 37.7642C222.316 37.0146 222.123 36.1901 222.123 35.2906V33.7165C222.123 32.8384 222.359 32.1423 222.83 31.6283C223.323 31.1143 224.052 30.8573 225.016 30.8573H228.872V34.359H226.397V34.873C226.397 35.8367 226.719 36.5756 227.361 37.0896C228.004 37.5822 228.936 37.8284 230.157 37.8284C231.25 37.8284 232.085 37.4644 232.664 36.7362C233.263 35.9866 233.563 34.9693 233.563 33.6843V30.7288C233.563 29.4438 233.221 28.448 232.535 27.7412C231.85 27.0131 230.885 26.649 229.643 26.649C229.043 26.649 228.475 26.7239 227.94 26.8738C227.426 27.0238 226.954 27.2165 226.526 27.4521C226.119 27.6877 225.755 27.9554 225.433 28.2552C225.133 28.5336 224.898 28.8013 224.726 29.0583L221.834 26.4883C222.498 25.4818 223.495 24.6358 224.823 23.9505C226.172 23.2437 227.843 22.8904 229.836 22.8904C231.185 22.8904 232.396 23.1045 233.467 23.5329C234.56 23.9398 235.481 24.5501 236.231 25.364C236.98 26.1564 237.548 27.1308 237.934 28.2873C238.341 29.4224 238.544 30.7181 238.544 32.1745C238.544 33.6308 238.351 34.9372 237.966 36.0937C237.58 37.2288 237.012 38.2032 236.263 39.0171C235.534 39.8095 234.635 40.4199 233.563 40.8482C232.514 41.2551 231.325 41.4586 229.996 41.4586Z" fill="#E17100"/>
<path d="M241.844 30.4397C241.844 29.2832 242.047 28.2445 242.454 27.3236C242.861 26.4027 243.44 25.6103 244.19 24.9463C244.939 24.2824 245.85 23.7791 246.921 23.4365C248.014 23.0724 249.235 22.8904 250.584 22.8904C251.934 22.8904 253.145 23.0724 254.216 23.4365C255.308 23.7791 256.229 24.2824 256.979 24.9463C257.729 25.6103 258.307 26.4027 258.715 27.3236C259.122 28.2445 259.325 29.2832 259.325 30.4397V41.0731H254.569V30.6646C254.569 29.3796 254.216 28.3944 253.509 27.7091C252.802 27.0023 251.827 26.649 250.584 26.649C249.342 26.649 248.367 27.0023 247.66 27.7091C246.953 28.3944 246.6 29.3796 246.6 30.6646V34.4875H246.76C246.846 34.0163 246.996 33.5665 247.21 33.1382C247.425 32.6885 247.703 32.2922 248.046 31.9496C248.41 31.6069 248.838 31.3392 249.331 31.1465C249.824 30.9323 250.402 30.8252 251.066 30.8252H251.902V35.2585H250.713C249.32 35.2585 248.281 35.4405 247.596 35.8046C246.932 36.1687 246.6 36.8433 246.6 37.8284V41.0731H241.844V30.4397Z" fill="#E17100"/>
<path d="M270.698 41.4586C269.563 41.4586 268.513 41.3086 267.549 41.0088C266.585 40.6876 265.75 40.2592 265.043 39.7238C264.357 39.167 263.811 38.5138 263.404 37.7642C263.018 37.0146 262.825 36.1901 262.825 35.2906V33.7165C262.825 32.8384 263.061 32.1423 263.532 31.6283C264.025 31.1143 264.753 30.8573 265.717 30.8573H269.574V34.359H267.099V34.873C267.099 35.8367 267.421 36.5756 268.063 37.0896C268.706 37.5822 269.638 37.8284 270.859 37.8284C271.952 37.8284 272.787 37.4644 273.365 36.7362C273.965 35.9866 274.265 34.9693 274.265 33.6843V30.7288C274.265 29.4438 273.922 28.448 273.237 27.7412C272.551 27.0131 271.587 26.649 270.345 26.649C269.745 26.649 269.177 26.7239 268.642 26.8738C268.127 27.0238 267.656 27.2165 267.228 27.4521C266.821 27.6877 266.456 27.9554 266.135 28.2552C265.835 28.5336 265.6 28.8013 265.428 29.0583L262.536 26.4883C263.2 25.4818 264.196 24.6358 265.525 23.9505C266.874 23.2437 268.545 22.8904 270.538 22.8904C271.887 22.8904 273.098 23.1045 274.169 23.5329C275.261 23.9398 276.183 24.5501 276.932 25.364C277.682 26.1564 278.25 27.1308 278.636 28.2873C279.043 29.4224 279.246 30.7181 279.246 32.1745C279.246 33.6308 279.053 34.9372 278.668 36.0937C278.282 37.2288 277.714 38.2032 276.965 39.0171C276.236 39.8095 275.336 40.4199 274.265 40.8482C273.215 41.2551 272.026 41.4586 270.698 41.4586Z" fill="#E17100"/>
<path d="M288.169 41.4586C286.327 41.4586 284.924 40.8589 283.96 39.6596C283.017 38.4388 282.546 36.7041 282.546 34.4553V23.2759H287.302V34.0377C287.302 34.5517 287.344 35.0336 287.43 35.4833C287.516 35.9117 287.666 36.2864 287.88 36.6077C288.094 36.9075 288.383 37.1538 288.748 37.3466C289.133 37.5179 289.605 37.6036 290.162 37.6036C290.547 37.6036 290.933 37.55 291.318 37.4429C291.725 37.3144 292.079 37.1324 292.379 36.8968C292.679 36.6612 292.925 36.3721 293.118 36.0294C293.311 35.6868 293.407 35.2906 293.407 34.8408V23.2759H298.163V37.3787H299.738V41.0731H296.878C294.95 41.0731 293.953 39.9701 293.889 37.7642H293.664C293.493 38.2568 293.257 38.7279 292.957 39.1777C292.679 39.606 292.315 39.9915 291.865 40.3342C291.436 40.6769 290.911 40.9446 290.29 41.1373C289.69 41.3515 288.983 41.4586 288.169 41.4586Z" fill="#E17100"/>
<path d="M309.599 41.4586C307.885 41.4586 306.428 41.1801 305.228 40.6233C304.05 40.0665 303.011 39.2848 302.111 38.2782L304.971 35.5155C305.592 36.2008 306.299 36.7576 307.092 37.1859C307.906 37.5929 308.817 37.7963 309.823 37.7963C310.809 37.7963 311.527 37.6357 311.977 37.3144C312.426 36.9932 312.651 36.5756 312.651 36.0616C312.651 35.5047 312.469 35.1085 312.105 34.873C311.741 34.616 311.248 34.4446 310.627 34.359L308.795 34.1341C306.846 33.8985 305.346 33.331 304.296 32.4315C303.268 31.532 302.754 30.2791 302.754 28.6728C302.754 27.7733 302.915 26.9702 303.236 26.2635C303.579 25.5567 304.05 24.9571 304.65 24.4645C305.271 23.9505 305.999 23.565 306.835 23.308C307.692 23.0296 308.634 22.8904 309.663 22.8904C310.52 22.8904 311.291 22.9546 311.977 23.0831C312.662 23.1902 313.283 23.3615 313.84 23.5971C314.419 23.8327 314.944 24.1218 315.415 24.4645C315.886 24.8071 316.347 25.2033 316.797 25.6531L314.001 28.4158C313.487 27.859 312.855 27.4093 312.105 27.0666C311.355 26.7239 310.573 26.5526 309.759 26.5526C308.881 26.5526 308.238 26.7132 307.831 27.0345C307.424 27.3557 307.221 27.7733 307.221 28.2873C307.221 28.8013 307.381 29.219 307.703 29.5402C308.045 29.84 308.624 30.0435 309.438 30.1506L311.27 30.4076C312.191 30.5361 313.005 30.7288 313.712 30.9858C314.44 31.2428 315.051 31.5855 315.543 32.0138C316.058 32.4207 316.443 32.924 316.7 33.5237C316.979 34.1234 317.118 34.8408 317.118 35.6761C317.118 36.5113 316.936 37.2823 316.572 37.9891C316.208 38.6958 315.693 39.3062 315.029 39.8202C314.387 40.3342 313.594 40.7411 312.651 41.0409C311.73 41.3194 310.713 41.4586 309.599 41.4586Z" fill="#E17100"/>
<path d="M311.084 52.5738C310.163 52.5738 309.392 52.4667 308.771 52.2525C308.128 52.0598 307.614 51.7707 307.228 51.3852C306.842 51.0211 306.564 50.582 306.393 50.068C306.221 49.5755 306.136 49.0186 306.136 48.3975V47.4659H304.079V44.4141H306.618C307.689 44.4141 308.46 44.6175 308.931 45.0244C309.381 45.4313 309.606 45.9775 309.606 46.6628V47.7229C309.606 48.9223 310.11 49.5219 311.116 49.5219C311.673 49.5219 312.07 49.372 312.305 49.0722C312.541 48.7938 312.659 48.344 312.659 47.7229V44.4141H316.547V47.3374C316.547 48.8794 316.108 50.1323 315.23 51.096C314.33 52.0812 312.948 52.5738 311.084 52.5738Z" fill="#E17100"/>
<path d="M319.287 23.2759H323.625L324.46 32.56L324.653 35.4833H324.91L325.553 32.56L327.963 23.2759H331.112L333.522 32.56L334.165 35.4833H334.39L334.486 32.56L336.093 17.0757H340.656L337.378 41.0731H332.333L330.02 30.6325L329.57 28.1267H329.473L328.959 30.6325L326.613 41.0731H321.665L319.287 23.2759Z" fill="#E17100"/>
</svg>
